<mxfile host="app.diagrams.net" agent="Mozilla/5.0 (Windows NT 10.0; Win64; x64) AppleWebKit/537.36 (KHTML, like Gecko) Chrome/135.0.0.0 Safari/537.36" version="27.0.1">
  <diagram name="PÃ¡gina-1" id="wxas3gpyIzGyaFhyBLLf">
    <mxGraphModel dx="1990" dy="1789" grid="1" gridSize="10" guides="1" tooltips="1" connect="1" arrows="1" fold="1" page="1" pageScale="1" pageWidth="827" pageHeight="1169" math="0" shadow="0">
      <root>
        <mxCell id="0" />
        <mxCell id="1" parent="0" />
        <mxCell id="aRWO6i-1ry3qsCi7LOla-1" value="" style="whiteSpace=wrap;html=1;aspect=fixed;" vertex="1" parent="1">
          <mxGeometry x="-330" y="-330" width="660" height="660" as="geometry" />
        </mxCell>
        <mxCell id="aRWO6i-1ry3qsCi7LOla-2" value="Actor" style="shape=umlActor;verticalLabelPosition=bottom;verticalAlign=top;html=1;outlineConnect=0;" vertex="1" parent="1">
          <mxGeometry x="-470" y="-180" width="30" height="60" as="geometry" />
        </mxCell>
        <mxCell id="aRWO6i-1ry3qsCi7LOla-3" value="Actor" style="shape=umlActor;verticalLabelPosition=bottom;verticalAlign=top;html=1;outlineConnect=0;" vertex="1" parent="1">
          <mxGeometry x="-470" y="80" width="30" height="60" as="geometry" />
        </mxCell>
        <mxCell id="aRWO6i-1ry3qsCi7LOla-4" value="Actor" style="shape=umlActor;verticalLabelPosition=bottom;verticalAlign=top;html=1;outlineConnect=0;" vertex="1" parent="1">
          <mxGeometry x="414" y="-290" width="30" height="60" as="geometry" />
        </mxCell>
        <mxCell id="aRWO6i-1ry3qsCi7LOla-5" value="Actor" style="shape=umlActor;verticalLabelPosition=bottom;verticalAlign=top;html=1;outlineConnect=0;" vertex="1" parent="1">
          <mxGeometry x="415" y="-120" width="30" height="60" as="geometry" />
        </mxCell>
        <mxCell id="aRWO6i-1ry3qsCi7LOla-6" value="Actor" style="shape=umlActor;verticalLabelPosition=bottom;verticalAlign=top;html=1;outlineConnect=0;" vertex="1" parent="1">
          <mxGeometry x="416" y="50" width="30" height="60" as="geometry" />
        </mxCell>
        <mxCell id="aRWO6i-1ry3qsCi7LOla-7" value="Actor" style="shape=umlActor;verticalLabelPosition=bottom;verticalAlign=top;html=1;outlineConnect=0;" vertex="1" parent="1">
          <mxGeometry x="417" y="220" width="30" height="60" as="geometry" />
        </mxCell>
      </root>
    </mxGraphModel>
  </diagram>
</mxfile>
